<svg preserveAspectRatio="xMidYMid meet" data-bbox="36.5 22.5 127 155" viewBox="36.5 22.5 127 155" height="200" width="200" xmlns="http://www.w3.org/2000/svg" data-type="color" role="presentation" aria-hidden="true"><defs><style>#comp-ksskx4ii svg [data-color="1"] {fill: #ffffff;}
    #comp-ksskx4ii svg [data-color="2"] {fill: #ffffff;}</style></defs>
    <g>
        <path d="M100 22.5c-35 0-63.5 28.4-63.5 63.3 0 24.9 14.5 46.4 35.4 56.7l-33 32.9 2.1 2.1 33.8-33.7c7.7 3.3 16.2 5.2 25.2 5.2 35 0 63.5-28.4 63.5-63.3S135 22.5 100 22.5zm0 123.6c-8.1 0-15.8-1.6-22.9-4.5l57.4-57.2-2.1-2.1-58.3 58c-20.5-9.7-34.7-30.5-34.7-54.5 0-33.2 27.1-60.3 60.5-60.3s60.5 27 60.5 60.3-27 60.3-60.4 60.3z" fill="#ffffff" data-color="1"></path>
        <path fill="#61D64C" d="M147 73.8a4 4 0 1 1-8 0 4 4 0 0 1 8 0z" data-color="2"></path>
    </g>
</svg>